<svg width="48" height="12" viewBox="0 0 48 12" fill="none" xmlns="http://www.w3.org/2000/svg">
<path opacity="0.5" d="M0.44 11H1.784V0.504H0.44V11ZM6.24312 11H7.50713V5.48C7.50713 4.392 7.41112 3.256 7.33113 2.2H7.39512C7.74713 2.968 8.13112 3.752 8.53113 4.456L12.2751 11H13.7151V0.504H12.4511V5.976C12.4511 7.064 12.5471 8.216 12.6271 9.304H12.5631C12.1951 8.536 11.8271 7.752 11.4271 7.048L7.68313 0.504H6.24312V11ZM18.1869 11H21.5469C23.8829 11 25.5149 9.992 25.5149 7.928C25.5149 6.488 24.6349 5.656 23.3869 5.416V5.352C24.3629 5.032 24.9229 4.104 24.9229 3.064C24.9229 1.224 23.4349 0.504 21.3069 0.504H18.1869V11ZM19.5309 4.968V1.576H21.1309C22.7629 1.576 23.5949 2.024 23.5949 3.24C23.5949 4.312 22.8589 4.968 21.0829 4.968H19.5309ZM19.5309 9.928V5.992H21.3549C23.1789 5.992 24.1869 6.584 24.1869 7.88C24.1869 9.288 23.1469 9.928 21.3549 9.928H19.5309ZM33.0651 11.192C35.7051 11.192 37.5611 9.08 37.5611 5.704C37.5611 2.36 35.7051 0.311999 33.0651 0.311999C30.4251 0.311999 28.5851 2.344 28.5851 5.704C28.5851 9.08 30.4251 11.192 33.0651 11.192ZM33.0651 10.008C31.1931 10.008 29.9771 8.328 29.9771 5.704C29.9771 3.096 31.1931 1.496 33.0651 1.496C34.9371 1.496 36.1691 3.096 36.1691 5.704C36.1691 8.328 34.9371 10.008 33.0651 10.008ZM39.9525 11H41.3765L42.8805 8.184C43.1525 7.656 43.4085 7.128 43.7125 6.488H43.7765C44.1125 7.128 44.4005 7.656 44.6725 8.184L46.2085 11H47.6965L44.6405 5.64L47.5045 0.504H46.0805L44.6885 3.176C44.4325 3.656 44.2245 4.088 43.9525 4.712H43.8885C43.5525 4.088 43.3285 3.656 43.0725 3.176L41.6485 0.504H40.1605L43.0085 5.576L39.9525 11Z" fill="#E20880"/>
</svg>
